<svg xmlns="http://www.w3.org/2000/svg" width="1080" height="1080" viewBox="0 0 1080 1080" version="1.1"><path d="M 503 14.513 C 490.305 15.933, 477.535 17.699, 459.500 20.530 C 454 21.393, 446.800 22.514, 443.500 23.021 C 436.594 24.083, 431.353 25.146, 421.500 27.484 C 417.650 28.398, 412.925 29.510, 411 29.956 C 402.403 31.946, 385.383 38.343, 383.037 40.466 C 381.440 41.911, 381.285 56.199, 380.656 259.756 C 380.285 379.515, 379.975 604.850, 379.967 760.500 L 379.951 1043.500 382.226 1043.814 C 383.477 1043.987, 389.675 1045.857, 396 1047.968 C 414.291 1054.075, 432.264 1058.048, 461.500 1062.449 C 470.850 1063.857, 481.200 1065.440, 484.500 1065.967 C 501.249 1068.643, 515.940 1069.382, 553.500 1069.439 C 593.021 1069.499, 605.325 1068.844, 627.500 1065.497 C 632.450 1064.750, 638.525 1063.853, 641 1063.504 C 643.475 1063.155, 647.525 1062.469, 650 1061.980 C 652.475 1061.491, 658.550 1060.362, 663.500 1059.472 C 685.617 1055.496, 708.636 1049.104, 729.241 1041.215 C 733.750 1039.488, 736.213 1037.950, 736.680 1036.567 C 737.936 1032.852, 737.443 700.837, 736.177 697.750 L 735.050 695 688.138 695 L 641.226 695 640.639 720.250 C 640.316 734.138, 639.818 790.475, 639.532 845.443 C 639.247 900.412, 638.648 945.752, 638.201 946.199 C 637.754 946.646, 600.063 946.897, 554.444 946.756 L 471.500 946.500 471.249 534.051 C 471.074 246.831, 471.317 121.283, 472.048 120.551 C 473.349 119.250, 630.302 118.503, 635.215 119.775 L 638.500 120.625 639.109 168.562 C 639.444 194.928, 639.875 251.487, 640.065 294.250 L 640.412 372 688.139 372 L 735.865 372 736.622 369.750 C 737.039 368.512, 737.381 295.325, 737.384 207.110 L 737.388 46.721 734.509 44.426 C 731.337 41.896, 729.267 41.081, 711 35.174 C 688.508 27.900, 658.992 21.677, 625 17.043 C 620.875 16.481, 614.350 15.514, 610.500 14.895 C 599.297 13.095, 518.258 12.807, 503 14.513 M 350 51.112 C 346.975 52.197, 343.375 53.487, 342 53.979 C 334.051 56.824, 319.625 63.127, 317.260 64.789 C 315.742 65.856, 311.575 68.158, 308 69.906 C 304.425 71.654, 299.700 74.084, 297.500 75.306 C 282.889 83.422, 271.878 89.850, 268 92.527 C 265.525 94.236, 262.038 96.276, 260.250 97.061 C 258.462 97.846, 257 98.811, 257 99.205 C 257 99.599, 256.052 100.805, 254.894 101.884 C 253.735 102.964, 253.106 104.362, 253.495 104.991 C 254.247 106.209, 252.547 114.637, 247.945 132.500 C 246.387 138.550, 244.228 147.325, 243.149 152 C 242.069 156.675, 239.821 165.900, 238.153 172.500 C 236.485 179.100, 231.465 199.350, 226.998 217.500 C 222.531 235.650, 215.705 263.100, 211.831 278.500 C 207.957 293.900, 203.976 310.100, 202.986 314.500 C 199.346 330.665, 191.683 359.537, 190.699 360.792 C 189.127 362.796, 188.371 361.236, 185.951 351 C 184.717 345.775, 180.375 328.225, 176.303 312 C 172.231 295.775, 168.188 279.575, 167.318 276 C 166.448 272.425, 163.934 262.525, 161.733 254 C 159.531 245.475, 157.084 235.800, 156.293 232.500 C 155.503 229.200, 153.466 221.100, 151.765 214.500 C 150.065 207.900, 148.473 201.037, 148.228 199.250 C 147.982 197.463, 147.268 196.002, 146.641 196.004 C 144.388 196.011, 139.178 199.902, 136.383 203.665 C 134.816 205.774, 131.388 210.010, 128.767 213.078 C 126.145 216.145, 124 219.041, 124 219.513 C 124 219.985, 123.169 221.300, 122.152 222.436 C 120.379 224.417, 112.705 235.397, 104.983 247 C 102.970 250.025, 99.112 255.784, 96.411 259.798 C 93.710 263.812, 89.165 271.012, 86.311 275.798 C 83.458 280.584, 80.308 285.625, 79.312 287 C 78.315 288.375, 76.427 291.525, 75.116 294 C 73.805 296.475, 70.880 301.650, 68.616 305.500 C 66.352 309.350, 63.753 314.075, 62.839 316 C 57.418 327.423, 50.740 342.597, 48.500 348.581 C 42.825 363.749, 37.888 377.680, 37.012 381 C 36.504 382.925, 34.898 388.325, 33.442 393 C 29.846 404.550, 27.105 414.594, 26.076 420 C 25.605 422.475, 24.315 428.775, 23.210 434 C 21.197 443.513, 18.070 461.925, 16.076 476 C 14.079 490.101, 12.003 524.483, 12.002 543.500 C 11.999 584.144, 18.201 634.558, 27.010 665.500 C 27.480 667.150, 28.341 670.300, 28.924 672.500 C 29.507 674.700, 30.938 679.650, 32.105 683.500 C 36.067 696.574, 36.838 698.787, 49.007 732 C 56.371 752.096, 74.496 791.199, 78.905 796.500 C 79.819 797.600, 81.647 800.525, 82.966 803 C 84.284 805.475, 86.115 808.625, 87.034 810 C 87.953 811.375, 91.133 816.207, 94.102 820.737 C 97.071 825.267, 100.391 829.268, 101.479 829.627 C 102.568 829.986, 118.902 830.292, 137.778 830.306 C 167.516 830.328, 172.305 830.124, 173.653 828.776 C 175.060 827.369, 174.777 826.376, 170.689 818.360 C 168.204 813.487, 162.932 802.300, 158.974 793.500 C 151.479 776.837, 148.063 769.259, 144.997 762.500 C 144 760.300, 142.468 756.349, 141.593 753.720 C 140.719 751.091, 138.919 746.800, 137.594 744.185 C 134.953 738.973, 123.426 705.225, 119.940 692.500 C 107.266 646.230, 102.176 617.269, 99.992 579 C 99.349 567.725, 98.500 553.775, 98.106 548 C 97.712 542.225, 97.740 533.450, 98.168 528.500 C 102.176 482.140, 103.033 475.503, 108.083 451.711 C 109.742 443.895, 112.008 433, 113.119 427.500 C 114.230 422, 116.008 414.246, 117.069 410.268 C 118.131 406.291, 119 402.184, 119 401.141 C 119 400.098, 119.623 398.728, 120.385 398.096 C 122.155 396.626, 122.110 396.440, 127.030 425.359 C 130.722 447.053, 132.840 459.273, 137.978 488.500 C 140.166 500.950, 143.180 518.754, 145.004 530 C 146.271 537.810, 150.098 560.115, 153.583 580 C 155.947 593.491, 156.608 597.425, 158.957 612 C 160.727 622.978, 163.025 636.180, 166.050 652.750 C 166.627 655.913, 167.516 661.200, 168.024 664.500 C 169.870 676.469, 172.873 685.461, 174.486 683.847 C 175.465 682.868, 180.842 662.421, 195.876 602.500 C 204.156 569.500, 212.275 537.325, 213.918 531 C 217.288 518.029, 226.235 482.614, 229.202 470.500 C 232.188 458.311, 237.513 437.173, 241.798 420.500 C 243.918 412.250, 246.881 400.325, 248.383 394 C 249.886 387.675, 251.497 381.375, 251.964 380 C 252.431 378.625, 253.110 376.600, 253.474 375.500 C 254.071 373.692, 254.225 373.661, 255.076 375.177 C 255.653 376.205, 256.372 494.125, 256.934 680.019 C 257.438 846.760, 257.997 983.283, 258.175 983.404 C 264.648 987.793, 275.049 994.081, 282.500 998.110 C 284.700 999.300, 288.300 1001.491, 290.500 1002.979 C 295.461 1006.334, 320.565 1020.007, 328 1023.404 C 335.431 1026.799, 355.836 1034, 358.024 1034 C 358.993 1034, 360 1033.438, 360.262 1032.750 C 360.524 1032.063, 360.506 810.438, 360.222 540.250 L 359.706 49 357.603 49.070 C 356.446 49.109, 353.025 50.028, 350 51.112 M 760 541.360 L 760 1028 762.381 1028 C 765.428 1028, 775.169 1024.320, 786 1019.077 C 793.374 1015.507, 798.390 1012.697, 817 1001.710 C 821.751 998.906, 830.264 994.045, 835.873 990.934 C 841.903 987.590, 850.171 982.510, 856.826 978.061 C 859.755 976.102, 864.115 973.375, 866.514 972 C 868.913 970.625, 874.550 966.800, 879.041 963.500 C 883.532 960.200, 888.462 956.600, 889.998 955.500 C 893.471 953.011, 899.841 947.766, 905.885 942.416 C 908.423 940.170, 912.525 936.928, 915 935.213 C 919.719 931.943, 945.772 906.467, 954.712 896.380 C 969.204 880.030, 976 872.072, 976 871.455 C 976 871.079, 978.148 868.235, 980.773 865.136 C 983.398 862.036, 987.519 856.575, 989.930 853 C 992.342 849.425, 995.318 845.375, 996.543 844 C 997.769 842.625, 999.499 840.150, 1000.388 838.500 C 1001.277 836.850, 1004.028 832.800, 1006.501 829.500 C 1008.975 826.200, 1011.309 822.825, 1011.689 822 C 1012.068 821.175, 1013.806 818.250, 1015.550 815.500 C 1017.295 812.750, 1019.021 809.547, 1019.386 808.382 C 1019.752 807.217, 1020.940 805.460, 1022.026 804.477 C 1023.111 803.494, 1024 802.353, 1024 801.941 C 1024 801.529, 1025.631 798.336, 1027.625 794.846 C 1036.724 778.915, 1038.026 776.428, 1045.610 760.500 C 1055.301 740.146, 1067.965 705.199, 1067.987 698.750 L 1068 695 1044.750 695.002 C 1031.963 695.003, 1010.312 695.302, 996.637 695.665 C 973.421 696.282, 971.649 696.460, 969.887 698.352 C 968.849 699.466, 968.005 701.080, 968.012 701.939 C 968.038 705.442, 952.081 739.057, 942.113 756.500 C 939.912 760.350, 936.903 765.750, 935.425 768.500 C 933.948 771.250, 931.530 775.075, 930.053 777 C 928.576 778.925, 926.142 782.636, 924.644 785.246 C 923.146 787.856, 919.689 792.674, 916.960 795.952 C 914.232 799.230, 912 802.219, 912 802.593 C 912 802.968, 909.545 806.250, 906.544 809.887 C 903.543 813.524, 899.380 818.629, 897.294 821.232 C 891.529 828.423, 866.524 852.903, 864.872 852.973 C 864.527 852.988, 863.749 852.403, 863.144 851.673 C 861.675 849.903, 860.620 393.649, 861.707 230 C 862.382 128.202, 862.292 110.158, 861.097 108.192 C 859.893 106.211, 854.449 102.698, 842.128 95.949 C 840.571 95.097, 837.092 93, 834.398 91.290 C 831.704 89.581, 827.700 87.165, 825.500 85.921 C 817.892 81.622, 803.791 73.489, 799.154 70.727 C 786.638 63.269, 770.299 55.827, 765.250 55.284 L 760 54.720 760 541.360" stroke="none" fill="#0f276b" fill-rule="evenodd"/></svg>